<svg version="1.1" xmlns="http://www.w3.org/2000/svg" xmlns:xlink="http://www.w3.org/1999/xlink">
	<path fill="#FFF" transform="scale(0.1, -0.1) translate(0, -1638)" d="M666 512q-31 44 -162 100q-105 -54 -139 -97q-35 -44 -35 -95q0 -69 50 -116q50 -48 120 -48q87 0 142 43t55 125q0 44 -31 88zM514 895q84 43 110 79q26 35 26 81q0 108 -150 108q-56 0 -94 -37q-39 -37 -39 -90q0 -48 147 -141zM74 1219q38 80 106 132q67 51 157 77 q89 24 188 24q193 0 324 -110q130 -111 130 -308q0 -84 -42 -164q-41 -78 -111 -122q102 -70 152 -151q48 -81 48 -202q0 -100 -44 -182q-42 -79 -118 -136q-74 -54 -167 -82q-90 -28 -187 -28q-130 0 -249 51q-117 49 -189 148q-72 98 -72 229q0 102 55 193q56 92 142 147 q-160 115 -160 297q0 109 37 187z" />
</svg>