<svg version="1.1" xmlns="http://www.w3.org/2000/svg" xmlns:xlink="http://www.w3.org/1999/xlink">
	<path transform="scale(0.1, -0.1) translate(0, -1638)" d="M77 2q166 161 296 295q98 103 168 206l-4 4q-45 -19 -111 -19q-129 0 -224 61q-96 61 -149 166q-53 104 -53 229q0 151 64 266q63 116 180 179q116 63 264 63q154 0 275 -64q120 -64 188 -183q67 -118 67 -277q0 -245 -146 -466q-143 -217 -400 -463zM683 1044 q-25 43 -70 69q-44 26 -97 26q-78 0 -132 -56q-54 -55 -54 -135q0 -50 24 -97t67 -72q44 -26 95 -26q82 0 137 57q56 58 56 138q0 52 -26 96z" />
</svg>