<svg version="1.1" xmlns="http://www.w3.org/2000/svg" xmlns:xlink="http://www.w3.org/1999/xlink">
	<path fill="#FFF" transform="scale(0.1, -0.1) translate(0, -1638)" d="M961 1422q-192 -190 -295 -300q-97 -103 -169 -211l4 -4q48 20 111 20q127 0 225 -62q97 -64 149 -169t52 -234q0 -152 -63 -271q-64 -118 -180 -183q-116 -64 -265 -64q-152 0 -274 66q-121 65 -189 186q-67 121 -67 282q0 251 146 475q144 221 388 468zM355 361 q25 -45 70 -71q44 -27 97 -27q78 0 132 57t54 138q0 53 -24 99t-67 73t-95 27q-82 0 -137 -58q-56 -59 -56 -141q0 -53 26 -97z" />
</svg>