<svg version="1.1" xmlns="http://www.w3.org/2000/svg" xmlns:xlink="http://www.w3.org/1999/xlink">
	<path fill="#FFF" transform="scale(0.1, -0.1) translate(0, -1638)" d="M6 1182q84 135 218 203q133 67 292 67q125 0 227 -49q104 -50 167 -144q62 -97 62 -223q0 -88 -32 -154q-31 -63 -103 -126q61 -34 106 -85q44 -52 69 -117q24 -64 24 -132q0 -119 -45 -205q-48 -88 -125 -142q-82 -57 -177 -82q-99 -26 -204 -26q-91 0 -178 28 q-89 28 -169 81q-82 54 -138 119l231 235q58 -75 114 -109q57 -36 138 -36q85 0 140 43t55 131t-60 118q-61 29 -164 29h-56q-9 -1 -27 -1h-15l-16 -1v248q20 0 49 1h26l27 1q54 2 99 12q44 10 74 43q28 31 28 92q0 82 -48 122q-49 40 -126 40q-36 0 -65 -10q-25 -9 -52 -25 q-20 -14 -54 -44q-7 -6 -15 -13q-5 -5 -13 -12q-16 -14 -21 -19z" />
</svg>